---
layout: compress
---
<?xml version="1.0" encoding="UTF-8"?>
<svg width="60" height="60" version="1.1" viewBox="0 0 134.46 135.46" xmlns="http://www.w3.org/2000/svg">
  <style type="text/css">#big-flower{display:initial}#ring,#small-flower{display:none}@media(min-width:120px){#big-flower{display:none}#ring,#small-flower{display:initial}}</style>
  <rect width="100%" height="100%" fill="#9c2c2c"/>
  <path d="M70.4 2.6497a9.7413 23.357 14.684 0 0-14.02 18.888 9.7413 23.357 14.684 0 0-1.9814 16.403 15.373 25.003 72.087 0 0-28.603 10.511 15.373 25.003 72.087 0 0-3.7928 15.313 24.89 15.5 12.078 0 0 13.791 11.694v.1046a2.6032 4.99 2.4352 0 1 .1025.0152 2.6032 4.99 2.4352 0 1 1.905 5.8113 2.6032 4.99 2.4352 0 1-.0218.1112h.0087a12.958 29.184 11.357 0 0 2.5765 18.066 32.522 25.998 33.999 0 0 1.818 3.869 4.378 14.989 13.596 0 0-.6017 1.9466 4.378 14.989 13.596 0 0-.3466 17.312 4.378 14.989 13.596 0 0 4.3116-2.7858 5.5654 16.556 16.422 0 0 .7739 10.493 6.9498 25.104 69.258 0 0 6.3148 1.9727 6.9498 25.104 69.258 0 0 21.848-5.4168 27.035 14.835 0 0 0 6.4216.425 27.035 14.835 0 0 0 25.998-10.766 5.3363 5.1427 0 0 0 1.262.1505 5.3363 5.1427 0 0 0 5.3362-5.1443 5.3363 5.1427 0 0 0-3.8647-4.9394 7.3311 17.513 0 0 0 1.8179-11.54 7.3311 17.513 0 0 0-2.945-14.031 27.989 15.621 9.5793 0 0-8.1414-8.4532 27.989 15.621 9.5793 0 0-29.471-6.1927 8.6872 16.161 0 0 0 1.2076-8.2156v-.0829a8.6872 16.161 0 0 0-4.6211-14.199 9.6894 21.874 30.748 0 0 10.138-10.705l.0588-.0915a9.6894 21.874 30.748 0 0 4.5601-24.865 9.6894 21.874 30.748 0 0-6.657-.3444 9.7413 23.357 14.684 0 0-3.6882-4.996 9.7413 23.357 14.684 0 0-1.4953-.3183zm4.9503 72.626a22.258 22.258 0 0 1 22.258 22.258 22.258 22.258 0 0 1-22.258 22.258 22.258 22.258 0 0 1-22.258-22.258 22.258 22.258 0 0 1 22.258-22.258zm-18.5 44.042a27.035 14.835 0 0 1 .0022.002 27.035 14.835 0 0 0 .1897.1962 6.9498 25.104 69.258 0 0-.327.1788 5.5654 16.556 16.422 0 0 .1351-.3771z" fill="#fff"/>
  <path id="ring" d="M75.4212 78.3236c-.8284 0-1.6657 2.885-1.0903 8.6536h2.1264c.6118-5.7689-.2076-8.6536-1.036-8.6536zm-6.3737 1.2268c-.9515-.0613-.8922 2.9765 1.7787 8.5271l1.9967-.728c-1.3108-5.2785-2.9357-7.7449-3.7755-7.7991zm12.7168.0325c-.8416.0535-2.4849 2.5133-3.8277 7.7798l1.9988.7276c2.7072-5.5377 2.7826-8.568 1.8288-8.5074zm-18.2886 3.189c-1.2143-.04-.2642 2.8689 4.4034 7.4244l1.6283-1.3668c-2.8347-4.211-5.087-6.0263-6.0316-6.0576zm23.8448.061c-.9476.0286-3.2163 1.8324-6.075 6.023l1.6282 1.3667c4.699-4.5293 5.665-7.4265 4.4468-7.3897zm-11.9718 4.3492a10.3512 10.3512 0 0 0-10.3511 10.3511 10.3512 10.3512 0 0 0 10.3511 10.3512A10.3512 10.3512 0 0 0 85.7 97.5332a10.3512 10.3512 0 0 0-10.3512-10.3511zm-15.8726.4924c-1.737.0616-.0374 2.6296 6.3607 5.519l1.0614-1.8397c-3.5176-2.5608-6.031-3.614-7.2434-3.6772a2.0669 2.0669 0 0 0-.1788-.002zm31.8157.0796a2.041 2.041 0 0 0-.1793.001c-1.2158.0576-3.738 1.0969-7.2694 3.6338l1.0635 1.8417c6.4203-2.8513 8.1269-5.4067 6.3851-5.4765zm-32.3714 5.7144c-4.3817-.066-2.653 2.5906 6.0187 3.2432l.3705-2.0944c-2.7876-.8021-4.9286-1.1267-6.389-1.1487zm32.89.0806c-1.4622.0131-3.6028.3232-6.3933 1.1075l.3679 2.0944c8.6814-.599 10.412-3.2411 6.0253-3.202zm-26.8787 4.68c-11.5751.7985-10.794 5.2296.3684 2.0928zm20.8476.0392-.3705 2.095c11.1502 3.2085 11.9325-1.2248.3705-2.095zm-19.967 3.4813c-10.604 4.7093-8.3523 8.6071 1.064 1.8418zm19.0708.0347-1.0614 1.8417c9.3804 6.8285 11.6286 2.9305 1.0614-1.8417zm-17.037 2.9733c-8.354 8.0522-4.9064 10.9444 1.6282 1.3663zm14.9947.0259-1.6283 1.3668c6.479 9.6251 9.926 6.7317 1.6283-1.3668zm-12.0563 2.1058c-5.0961 10.4236-.8659 11.9635 1.9988.728zm9.1116.0129-1.9988.728c2.7963 11.2606 7.0261 9.7202 1.9988-.728zm-5.6218.9854c-1.2236 11.538 3.2784 11.5376 2.1275 0z" fill="none" stroke="#fff" stroke-linecap="round" stroke-width="1.2458"/>
  <g id="big-flower" transform="translate(-75 -97) scale(2)">
    <path d="M75.341 90.292c-3.5584.1816-.9134 2.7628-.0413 4.2811.8597-1.5755 3.7285-4.0801.0413-4.2811zm-.0413 4.2811c-.093.1704-.1632.3306-.1984.4752l.4098-.024c-.0427-.135-.1171-.287-.2115-.4513zm-5.5977-.7455c-.4215.0224-.8394.4298-1.2425 1.4735-.9266 3.4392 2.3427 1.7212 4.0566 1.3602-.8591-.9094-1.8448-2.8855-2.8141-2.8337zm2.814 2.8337c.1335.1412.2635.2575.3902.3357l.1047-.3945c-.142-.0011-.3088.0198-.4948.0588zm8.4053-2.8097c-.9659.0266-1.9766 1.84-2.775 2.7225 1.7644.3314 5.0309 2.2842 4.0828-1.2839-.4076-1.066-.8527-1.451-1.308-1.4386zm-2.775 2.7225c-.191-.0358-.3636-.0527-.5122-.0413l.146.3814c.1153-.0824.2391-.1995.3663-.34zm-1.1421 2.825-.3183.2594c.1137.084.2635.1625.436.2398-.025-.192-.0613-.3618-.1178-.4992zm.1177.4992c.231 1.7795-.619 5.4927 2.4828 3.4876 2.7726-2.239-.8854-2.7717-2.4828-3.4876zm-3.383-.4338c-.0447.1341-.0735.3003-.0937.4883.1747-.083.325-.17.438-.266zm-.0937.4883c-1.621.7697-5.416 1.1093-2.5503 3.4397 2.986 1.945 2.363-1.6992 2.5503-3.4397z" fill="none" stroke="#fff" stroke-width="3.2149"/>
    <circle cx="75.35" cy="97.533" r="2.2306" fill="#fff" stroke="#9c2c2c" stroke-linecap="round" stroke-linejoin="round" stroke-width=".9278"/>
    <circle cx="75.35" cy="97.533" r="1.1876" fill="#9c2c2c"/>
  </g>
  <g id="small-flower">
    <path d="M75.341 90.292c-3.5584.1816-.9134 2.7628-.0413 4.2811.8597-1.5755 3.7285-4.0801.0413-4.2811zm-.0413 4.2811c-.093.1704-.1632.3306-.1984.4752l.4098-.024c-.0427-.135-.1171-.287-.2115-.4513zm-5.5977-.7455c-.4215.0224-.8394.4298-1.2425 1.4735-.9266 3.4392 2.3427 1.7212 4.0566 1.3602-.8591-.9094-1.8448-2.8855-2.8141-2.8337zm2.814 2.8337c.1335.1412.2635.2575.3902.3357l.1047-.3945c-.142-.0011-.3088.0198-.4948.0588zm8.4053-2.8097c-.9659.0266-1.9766 1.84-2.775 2.7225 1.7644.3314 5.0309 2.2842 4.0828-1.2839-.4076-1.066-.8527-1.451-1.308-1.4386zm-2.775 2.7225c-.191-.0358-.3636-.0527-.5122-.0413l.146.3814c.1153-.0824.2391-.1995.3663-.34zm-1.1421 2.825-.3183.2594c.1137.084.2635.1625.436.2398-.025-.192-.0613-.3618-.1178-.4992zm.1177.4992c.231 1.7795-.619 5.4927 2.4828 3.4876 2.7726-2.239-.8854-2.7717-2.4828-3.4876zm-3.383-.4338c-.0447.1341-.0735.3003-.0937.4883.1747-.083.325-.17.438-.266zm-.0937.4883c-1.621.7697-5.416 1.1093-2.5503 3.4397 2.986 1.945 2.363-1.6992 2.5503-3.4397z" fill="none" stroke="#fff" stroke-width="3.2149"/>
    <circle cx="75.35" cy="97.533" r="2.2306" fill="#fff" stroke="#9c2c2c" stroke-linecap="round" stroke-linejoin="round" stroke-width=".9278"/>
    <circle cx="75.35" cy="97.533" r="1.1876" fill="#9c2c2c"/>
  </g>
</svg>